# xmcd
#
# Track frame offsets:
#	150
#	15711
#	27891
#	42547
#	54898
#	68728
#	85559
#	98639
#	115022
#	131379
#	150305
#	164885
#	180485
#	195199
#	209252
#	222929
#	236684
#	254188
#	268616
#	280266
#	293046
#	305665
#	318870
#	330804
#	346287
#
# Disc length: 4792 seconds
#
# Revision: 0
# Processed by: cddbd v1.5.1PL0 Copyright (c) Steve Scherf et al.
# Submitted via: dBpowerAMP V4.0
#
DISCID=5912b619
DTITLE=Los Tigres Del Norte - Super Exitos
DYEAR=1900
DGENRE=Country
TTITLE0=Contrabando y Traicion
TTITLE1=El Hijo Menor
TTITLE2=La Fuga Del Rojo
TTITLE3=Jaula De Oro
TTITLE4=Vivan Los Mojados
TTITLE5=Por Que Me Quite Del Vicio
TTITLE6=Carta Abierta
TTITLE7=El Tahur
TTITLE8=La Baraja Bendita
TTITLE9=Asi Como Tu
TTITLE10=Trabajo Por Mi Cuenta
TTITLE11=Somos Mas Americanos
TTITLE12=Pedro y Pablo
TTITLE13=La Banda Del Carro Rojo
TTITLE14=El Niño y La Boda
TTITLE15=America
TTITLE16=Los 3 Amigos
TTITLE17=Mi Buena Suerte
TTITLE18=Pueblo Querido
TTITLE19=El Celular
TTITLE20=Amorcito Norteño
TTITLE21=Corazon Usado
TTITLE22=Bohemio De Aficion
TTITLE23=La Puerta Negra
TTITLE24=El Ejemplo
EXTD=Latin Country is a better category.
EXTT0=
EXTT1=
EXTT2=
EXTT3=
EXTT4=
EXTT5=
EXTT6=
EXTT7=
EXTT8=
EXTT9=
EXTT10=
EXTT11=
EXTT12=
EXTT13=
EXTT14=
EXTT15=
EXTT16=
EXTT17=
EXTT18=
EXTT19=
EXTT20=
EXTT21=
EXTT22=
EXTT23=
EXTT24=
PLAYORDER=
